<?xml version="1.0" encoding="utf-8"?>
<!-- Generator: Adobe Illustrator 16.0.3, SVG Export Plug-In . SVG Version: 6.00 Build 0)  -->
<!DOCTYPE svg PUBLIC "-//W3C//DTD SVG 1.1//EN" "http://www.w3.org/Graphics/SVG/1.1/DTD/svg11.dtd" [
	<!ENTITY ns_extend "http://ns.adobe.com/Extensibility/1.0/">
	<!ENTITY ns_ai "http://ns.adobe.com/AdobeIllustrator/10.0/">
	<!ENTITY ns_graphs "http://ns.adobe.com/Graphs/1.0/">
	<!ENTITY ns_vars "http://ns.adobe.com/Variables/1.0/">
	<!ENTITY ns_imrep "http://ns.adobe.com/ImageReplacement/1.0/">
	<!ENTITY ns_sfw "http://ns.adobe.com/SaveForWeb/1.0/">
	<!ENTITY ns_custom "http://ns.adobe.com/GenericCustomNamespace/1.0/">
	<!ENTITY ns_adobe_xpath "http://ns.adobe.com/XPath/1.0/">
]>
<svg version="1.1" id="Шар_1" xmlns:x="&ns_extend;" xmlns:i="&ns_ai;" xmlns:graph="&ns_graphs;"
	 xmlns="http://www.w3.org/2000/svg" xmlns:xlink="http://www.w3.org/1999/xlink" x="0px" y="0px" width="130.002px"
	 height="27.966px" viewBox="0 0 130.002 27.966" enable-background="new 0 0 130.002 27.966" xml:space="preserve">
<metadata>
	<sfw  xmlns="&ns_sfw;">
		<slices></slices>
		<sliceSourceBounds  width="130" height="27.966" y="-39.966" x="-94.699" bottomLeftOrigin="true"></sliceSourceBounds>
	</sfw>
</metadata>
<g>
	<path fill-rule="evenodd" clip-rule="evenodd" fill="#6EBD44" d="M7.598,0c32.101,0,82.705,0,114.808,0
		c5.918,0,8.96,4.233,7.005,10.715l-2.527,8.371c-1.427,4.73-6.655,8.88-12.761,8.88c-26.615,0-71.627,0-98.242,0
		c-6.106,0-11.333-4.149-12.76-8.88l-2.528-8.371C-1.364,4.233,1.679,0,7.598,0"/>
	<path fill="#FFFFFF" d="M96.58,8c3.248,0,5.791,0.609,7.63,1.828c1.661,1.094,2.49,2.457,2.49,4.09
		c0,1.871-0.973,3.359-2.917,4.463c-1.857,1.051-4.259,1.576-7.203,1.576c-3.07,0-5.208-0.525-7.009-1.576
		c-1.858-1.084-2.787-2.582-2.787-4.498c0-1.777,0.928-3.203,2.787-4.273C91.427,8.533,93.564,8,96.58,8 M96.526,10.775
		c-1.303,0-2.275,0.34-2.917,1.025c-0.536,0.568-0.804,1.271-0.804,2.117c0,0.881,0.25,1.605,0.75,2.176
		c0.642,0.725,1.65,1.088,3.025,1.088c1.179,0,2.106-0.305,2.784-0.906c0.679-0.605,1.018-1.393,1.018-2.357
		c0-0.865-0.294-1.58-0.883-2.148C98.802,11.107,97.813,10.775,96.526,10.775z M32.83,8c3.25,0,5.494,0.609,7.33,1.828
		c1.662,1.094,2.493,2.457,2.493,4.09c0,1.871-0.974,3.359-2.919,4.463c-1.856,1.051-3.958,1.576-6.903,1.576
		c-3.071,0-5.504-0.525-7.308-1.576c-1.856-1.084-2.785-2.582-2.785-4.498c0-1.777,0.929-3.203,2.785-4.273
		C27.377,8.533,29.813,8,32.83,8z M32.778,10.775c-1.305,0-2.277,0.34-2.919,1.025c-0.536,0.568-0.804,1.271-0.804,2.117
		c0,0.881,0.25,1.605,0.75,2.176c0.644,0.725,1.653,1.088,3.026,1.088c1.179,0,2.106-0.305,2.784-0.906
		c0.679-0.605,1.018-1.393,1.018-2.357c0-0.865-0.294-1.58-0.884-2.148C35.054,11.107,34.063,10.775,32.778,10.775z M50.7,20h-5.972
		L44.701,8h6V20z M51.404,13.783L58.13,8h6.647l-6.654,5.416l7.348,6.434H61.24c-2.082,0-3.874-0.633-5.255-1.85L51.404,13.783z
		 M72.7,20h-5.979V8H72.7V20z M73.396,13.783L80.123,8h6.644l-6.651,5.416l7.056,6.434H83.23c-2.081,0-3.875-0.633-5.254-1.85
		L73.396,13.783z"/>
</g>
</svg>
