<svg xmlns="http://www.w3.org/2000/svg" width="29.04" height="24" viewBox="0 0 29.04 24"><defs><style>.a{fill:#fff;}</style></defs><title>twitter</title><path class="a" d="M1598.43-227.95l0.06,1-1-.13a17.07,17.07,0,0,1-10-4.91l-1.38-1.38-0.36,1A6.11,6.11,0,0,0,1587-226c0.84,0.89.65,1-.8,0.49a2.47,2.47,0,0,0-1-.23,7.59,7.59,0,0,0,.76,2.84,6.78,6.78,0,0,0,2.87,2.71l1,0.49-1.22,0c-1.18,0-1.22,0-1.09.47a6.34,6.34,0,0,0,3.92,3.47l1.3,0.44-1.13.68a11.81,11.81,0,0,1-5.62,1.57,6.21,6.21,0,0,0-1.72.17,16,16,0,0,0,4,1.86,17.73,17.73,0,0,0,13.77-1.57,18.42,18.42,0,0,0,7-8.22,21.85,21.85,0,0,0,1.43-6.36c0-1,.06-1.1,1.24-2.27a13.83,13.83,0,0,0,1.47-1.63c0.21-.4.19-0.4-0.88,0-1.78.64-2,.55-1.15-0.4a6.16,6.16,0,0,0,1.43-2.27,1.13,1.13,0,0,0-.67.23,11.71,11.71,0,0,1-1.85.72l-1.13.36-1-.7a8.54,8.54,0,0,0-1.78-.93,7.17,7.17,0,0,0-3.67.08A6.07,6.07,0,0,0,1598.43-227.95Z" transform="translate(-1584.33 234.33)"/></svg>