<svg xmlns="http://www.w3.org/2000/svg" width="32" height="17.92" viewBox="0 0 32 17.92"><defs><style>.a{fill:#fff;}</style></defs><title>vk</title><path class="a" d="M1472.9-213.45a1.64,1.64,0,0,0,.87-0.37,1.35,1.35,0,0,0,.26-0.83s0-2.52,1.16-2.89,2.68,2.44,4.28,3.51a3.07,3.07,0,0,0,2.13.64l4.27-.06s2.23-.14,1.18-1.86a14.11,14.11,0,0,0-3.18-3.61c-2.68-2.44-2.32-2,.91-6.27,2-2.57,2.75-4.14,2.51-4.81s-1.68-.47-1.68-0.47l-4.81,0a1.11,1.11,0,0,0-.62.11,1.33,1.33,0,0,0-.43.51,27.08,27.08,0,0,1-1.78,3.68c-2.14,3.57-3,3.76-3.35,3.54-0.82-.52-0.61-2.08-0.61-3.18,0-3.46.54-4.9-1-5.28a8.37,8.37,0,0,0-2.25-.22,10.58,10.58,0,0,0-4,.4c-0.55.26-1,.85-0.71,0.88a2.17,2.17,0,0,1,1.42.7,4.49,4.49,0,0,1,.48,2.14s0.28,4.07-.66,4.58c-0.65.35-1.54-.36-3.45-3.6a29.88,29.88,0,0,1-1.72-3.49,1.41,1.41,0,0,0-.4-0.53,2,2,0,0,0-.74-0.29l-4.57,0a1.58,1.58,0,0,0-.94.31,1,1,0,0,0,0,.8s3.58,8.22,7.63,12.36a11.09,11.09,0,0,0,7.94,3.55h1.91Z" transform="translate(-1455.33 231.29)"/></svg>