<svg xmlns="http://www.w3.org/2000/svg" width="70" height="66" viewBox="0 0 70 66"><defs><style>.a{fill:none;stroke:#17a4d2;stroke-miterlimit:10;stroke-width:2px;}.b{fill:#17a4d2;}</style></defs><title>constant-orders</title><circle class="a" cx="9" cy="16" r="3"/><circle class="a" cx="22" cy="4" r="3"/><circle class="a" cx="35" cy="18" r="3"/><circle class="a" cx="47" cy="12" r="3"/><circle class="a" cx="59" cy="5" r="3"/><circle class="b" cx="64" cy="47" r="1"/><circle class="b" cx="61" cy="44" r="1"/><circle class="b" cx="61" cy="50" r="1"/><circle class="b" cx="64" cy="53" r="1"/><circle class="b" cx="64" cy="59" r="1"/><circle class="b" cx="61" cy="56" r="1"/><circle class="b" cx="61" cy="62" r="1"/><circle class="b" cx="64" cy="41" r="1"/><circle class="b" cx="64" cy="35" r="1"/><circle class="b" cx="61" cy="32" r="1"/><circle class="b" cx="61" cy="38" r="1"/><circle class="b" cx="64" cy="29" r="1"/><circle class="b" cx="58" cy="47" r="1"/><circle class="b" cx="58" cy="53" r="1"/><circle class="b" cx="58" cy="59" r="1"/><circle class="b" cx="58" cy="41" r="1"/><circle class="b" cx="58" cy="35" r="1"/><circle class="b" cx="58" cy="29" r="1"/><circle class="b" cx="61" cy="26" r="1"/><circle class="b" cx="12" cy="47" r="1"/><circle class="b" cx="9" cy="44" r="1"/><circle class="b" cx="9" cy="50" r="1"/><circle class="b" cx="12" cy="53" r="1"/><circle class="b" cx="12" cy="59" r="1"/><circle class="b" cx="9" cy="56" r="1"/><circle class="b" cx="9" cy="62" r="1"/><circle class="b" cx="12" cy="41" r="1"/><circle class="b" cx="12" cy="35" r="1"/><circle class="b" cx="9" cy="32" r="1"/><circle class="b" cx="9" cy="38" r="1"/><circle class="b" cx="6" cy="47" r="1"/><circle class="b" cx="6" cy="53" r="1"/><circle class="b" cx="6" cy="59" r="1"/><circle class="b" cx="6" cy="41" r="1"/><circle class="b" cx="6" cy="35" r="1"/><circle class="b" cx="38" cy="47" r="1"/><circle class="b" cx="35" cy="44" r="1"/><circle class="b" cx="35" cy="50" r="1"/><circle class="b" cx="38" cy="53" r="1"/><circle class="b" cx="38" cy="59" r="1"/><circle class="b" cx="35" cy="56" r="1"/><circle class="b" cx="35" cy="62" r="1"/><circle class="b" cx="38" cy="41" r="1"/><circle class="b" cx="32" cy="47" r="1"/><circle class="b" cx="32" cy="53" r="1"/><circle class="b" cx="32" cy="59" r="1"/><circle class="b" cx="32" cy="41" r="1"/><line class="a" x1="70" y1="65" y2="65"/><rect class="a" x="5" y="28.75" width="8" height="36.25"/><rect class="a" x="57" y="22.75" width="8" height="42.25"/><rect class="a" x="44" y="31.75" width="8" height="33.25"/><rect class="a" x="31" y="37.75" width="8" height="27.25"/><rect class="a" x="18" y="20.75" width="8" height="44.25"/><line class="a" x1="49.59" y1="10.49" x2="56.41" y2="6.51"/><line class="a" x1="37.68" y1="16.66" x2="44.32" y2="13.34"/><line class="a" x1="24.04" y1="6.2" x2="32.96" y2="15.81"/><line class="a" x1="11.2" y1="13.97" x2="19.8" y2="6.03"/></svg>