<svg xmlns="http://www.w3.org/2000/svg" width="70.31" height="70.31" viewBox="0 0 70.31 70.31"><defs><style>.a{fill:none;stroke:#17a4d2;stroke-miterlimit:10;stroke-width:2px;}.b{fill:#17a4d2;}</style></defs><title>discount</title><polygon class="a" points="35.16 1.16 43.05 5.71 52.16 5.71 56.71 13.6 64.6 18.16 64.6 27.27 69.16 35.16 64.6 43.05 64.6 52.16 56.71 56.71 52.16 64.6 43.05 64.6 35.16 69.16 27.27 64.6 18.16 64.6 13.6 56.71 5.71 52.16 5.71 43.05 1.16 35.16 5.71 27.27 5.71 18.16 13.6 13.6 18.16 5.71 27.27 5.71 35.16 1.16"/><circle class="b" cx="35.15" cy="6.15" r="1"/><circle class="b" cx="35.15" cy="64.15" r="1"/><circle class="b" cx="6.15" cy="35.15" r="1"/><circle class="b" cx="64.15" cy="35.15" r="1"/><circle class="b" cx="538" cy="-77.63" r="1" transform="translate(-406.45 346.27) rotate(-30)"/><circle class="b" cx="567" cy="-27.4" r="1" transform="translate(-427.68 367.5) rotate(-30)"/><circle class="b" cx="527.38" cy="-38.01" r="1" transform="translate(-427.68 346.27) rotate(-30)"/><circle class="b" cx="577.61" cy="-67.01" r="1" transform="translate(-406.45 367.5) rotate(-30)"/><circle class="b" cx="527.38" cy="-67.01" r="1" transform="translate(-195.62 510.89) rotate(-60)"/><circle class="b" cx="577.61" cy="-38.01" r="1" transform="translate(-195.63 568.89) rotate(-60)"/><circle class="b" cx="538" cy="-27.4" r="1" transform="translate(-224.62 539.89) rotate(-60)"/><circle class="b" cx="567" cy="-77.63" r="1" transform="translate(-166.63 539.89) rotate(-60)"/><path class="b" d="M540.83-58.78c0-3.28,2-5.56,5-5.56s5,2.27,5,5.56-2,5.56-5,5.56S540.83-55.5,540.83-58.78Zm2,17.44,8.58-11.78,7.5-10.77h3.41L553.57-52l-7.34,10.61H542.8Zm5.13-17.45c0-1.94-.81-3.11-2.12-3.11s-2.12,1.2-2.12,3.11,0.84,3.14,2.13,3.14S547.93-56.89,547.93-58.8Zm6.28,12.33c0-3.28,2-5.55,5-5.55s5,2.27,5,5.55-2,5.58-5,5.58S554.21-43.17,554.21-46.47Zm7.09,0c0-1.94-.81-3.11-2.11-3.11s-2.12,1.2-2.12,3.11,0.84,3.14,2.13,3.14S561.3-44.56,561.3-46.47Z" transform="translate(-517.35 87.67)"/><circle class="b" cx="35.15" cy="12.15" r="1"/><circle class="b" cx="35.15" cy="58.15" r="1"/><circle class="b" cx="58.15" cy="35.15" r="1"/><circle class="b" cx="12.15" cy="35.15" r="1"/><circle class="b" cx="568.76" cy="-68.78" r="1" transform="translate(-302.13 469.7) rotate(-45)"/><circle class="b" cx="536.24" cy="-36.25" r="1" transform="translate(-334.65 456.23) rotate(-45)"/><circle class="b" cx="568.76" cy="-36.25" r="1" transform="translate(-325.13 479.23) rotate(-45)"/><circle class="b" cx="536.24" cy="-68.78" r="1" transform="translate(-311.65 446.7) rotate(-45)"/><circle class="b" cx="543.7" cy="-73.76" r="1" transform="translate(-447.73 290.12) rotate(-22.5)"/><circle class="b" cx="561.3" cy="-31.26" r="1" transform="translate(-462.65 300.09) rotate(-22.5)"/><circle class="b" cx="573.75" cy="-61.32" r="1" transform="translate(-450.2 302.57) rotate(-22.5)"/><circle class="b" cx="531.25" cy="-43.71" r="1" transform="translate(-460.18 287.65) rotate(-22.5)"/><circle class="b" cx="561.3" cy="-73.76" r="1" transform="translate(-102.7 560.71) rotate(-67.5)"/><circle class="b" cx="543.7" cy="-31.26" r="1" transform="translate(-152.83 570.68) rotate(-67.5)"/><circle class="b" cx="573.75" cy="-43.71" r="1" transform="translate(-122.78 590.76) rotate(-67.5)"/><circle class="b" cx="531.25" cy="-61.32" r="1" transform="translate(-132.75 540.63) rotate(-67.5)"/><circle class="b" cx="548.01" cy="-75.07" r="1" transform="translate(-492.17 193.14) rotate(-11.25)"/><circle class="b" cx="556.99" cy="-29.95" r="1" transform="translate(-500.8 195.76) rotate(-11.25)"/><circle class="b" cx="575.06" cy="-57" r="1" transform="translate(-495.17 198.76) rotate(-11.25)"/><circle class="b" cx="529.94" cy="-48.03" r="1" transform="translate(-497.79 190.14) rotate(-11.25)"/><circle class="b" cx="565.28" cy="-71.64" r="1" transform="translate(-206.56 525.84) rotate(-56.25)"/><circle class="b" cx="539.72" cy="-33.39" r="1" transform="translate(-249.72 521.59) rotate(-56.25)"/><circle class="b" cx="571.63" cy="-39.74" r="1" transform="translate(-230.26 545.3) rotate(-56.25)"/><circle class="b" cx="533.38" cy="-65.29" r="1" transform="translate(-226.01 502.14) rotate(-56.25)"/><circle class="b" cx="539.72" cy="-71.64" r="1" transform="translate(-386.58 375.45) rotate(-33.75)"/><circle class="b" cx="565.28" cy="-33.39" r="1" transform="translate(-403.53 396.1) rotate(-33.75)"/><circle class="b" cx="571.63" cy="-65.29" r="1" transform="translate(-384.73 394.25) rotate(-33.75)"/><circle class="b" cx="533.38" cy="-39.73" r="1" transform="translate(-405.38 377.3) rotate(-33.75)"/><circle class="b" cx="556.99" cy="-75.07" r="1" transform="translate(4.61 573.53) rotate(-78.75)"/><circle class="b" cx="548.01" cy="-29.96" r="1" transform="translate(-46.87 601.04) rotate(-78.75)"/><circle class="b" cx="575.06" cy="-48.03" r="1" transform="translate(-7.37 613.02) rotate(-78.75)"/><circle class="b" cx="529.94" cy="-57" r="1" transform="translate(-34.89 561.55) rotate(-78.75)"/></svg>