<svg xmlns="http://www.w3.org/2000/svg" width="65" height="67" viewBox="0 0 65 67"><defs><style>.a{fill:none;stroke:#17a4d2;stroke-miterlimit:10;stroke-width:2px;}.b{fill:#17a4d2;}</style></defs><title>free-schedule</title><path class="a" d="M186,81.6v33a4,4,0,0,0,4,4h50a4,4,0,0,0,4-4v-50a4,4,0,0,0-4-4h-8" transform="translate(-180 -52.6)"/><line class="a" x1="48" y1="8" x2="30" y2="8"/><circle class="b" cx="43" cy="38" r="1"/><circle class="b" cx="39" cy="38" r="1"/><circle class="b" cx="35" cy="38" r="1"/><circle class="b" cx="31" cy="38" r="1"/><circle class="b" cx="27" cy="38" r="1"/><circle class="b" cx="23" cy="38" r="1"/><circle class="b" cx="47" cy="38" r="1"/><circle class="b" cx="43" cy="46" r="1"/><circle class="b" cx="39" cy="46" r="1"/><circle class="b" cx="35" cy="46" r="1"/><circle class="b" cx="31" cy="46" r="1"/><circle class="b" cx="27" cy="42" r="1"/><circle class="b" cx="27" cy="50" r="1"/><circle class="b" cx="19" cy="42" r="1"/><circle class="b" cx="19" cy="50" r="1"/><circle class="b" cx="35" cy="42" r="1"/><circle class="b" cx="35" cy="34" r="1"/><circle class="b" cx="35" cy="50" r="1"/><circle class="b" cx="43" cy="42" r="1"/><circle class="b" cx="43" cy="34" r="1"/><circle class="b" cx="43" cy="50" r="1"/><circle class="b" cx="51" cy="42" r="1"/><circle class="b" cx="51" cy="34" r="1"/><circle class="b" cx="51" cy="50" r="1"/><circle class="b" cx="27" cy="46" r="1"/><circle class="b" cx="23" cy="46" r="1"/><circle class="b" cx="19" cy="38" r="1"/><circle class="b" cx="19" cy="46" r="1"/><circle class="b" cx="51" cy="38" r="1"/><circle class="b" cx="51" cy="46" r="1"/><circle class="b" cx="47" cy="46" r="1"/><circle class="b" cx="43" cy="54" r="1"/><circle class="b" cx="39" cy="54" r="1"/><circle class="b" cx="35" cy="54" r="1"/><circle class="b" cx="31" cy="54" r="1"/><circle class="b" cx="27" cy="54" r="1"/><circle class="b" cx="23" cy="54" r="1"/><circle class="b" cx="19" cy="54" r="1"/><circle class="b" cx="51" cy="54" r="1"/><circle class="b" cx="47" cy="54" r="1"/><circle class="b" cx="43" cy="30" r="1"/><circle class="b" cx="39" cy="30" r="1"/><circle class="b" cx="35" cy="30" r="1"/><circle class="b" cx="51" cy="30" r="1"/><circle class="b" cx="47" cy="30" r="1"/><path class="a" d="M228,56.6v8a1,1,0,0,0,1,1h2a1,1,0,0,0,1-1v-8a1,1,0,0,0-1-1h-2A1,1,0,0,0,228,56.6Z" transform="translate(-180 -52.6)"/><line class="a" x1="64" y1="20" x2="33" y2="20"/><path class="a" d="M189.09,55.69a16,16,0,1,1-4.57,3.89" transform="translate(-180 -52.6)"/><circle class="b" cx="17" cy="17" r="2"/><polyline class="a" points="23 8 17 17 23 23"/><polygon class="b" points="1 6 6 11 7 5 1 6"/></svg>