<svg xmlns="http://www.w3.org/2000/svg" xmlns:xlink="http://www.w3.org/1999/xlink" width="135" height="40" viewBox="0 0 135 40"><defs><style>.a{fill:#a6a6a6;}.b,.i{fill:#fff;}.c{fill:url(#a);}.d{fill:url(#b);}.e{fill:url(#c);}.f{fill:url(#d);}.g{opacity:0.2;}.g,.h,.i{isolation:isolate;}.h{opacity:0.12;}.i{opacity:0.25;}</style><linearGradient id="a" x1="815.8" y1="768.29" x2="799.02" y2="751.51" gradientTransform="matrix(1, 0, 0, -1, 0, 502)" gradientUnits="userSpaceOnUse"><stop offset="0" stop-color="#00a0ff"/><stop offset="0.01" stop-color="#00a1ff"/><stop offset="0.26" stop-color="#00beff"/><stop offset="0.51" stop-color="#00d2ff"/><stop offset="0.76" stop-color="#00dfff"/><stop offset="1" stop-color="#00e3ff"/></linearGradient><linearGradient id="b" x1="827.83" y1="757" x2="803.64" y2="757" gradientTransform="matrix(1, 0, 0, -1, 0, 502)" gradientUnits="userSpaceOnUse"><stop offset="0" stop-color="#ffe000"/><stop offset="0.41" stop-color="#ffbd00"/><stop offset="0.78" stop-color="orange"/><stop offset="1" stop-color="#ff9c00"/></linearGradient><linearGradient id="c" x1="818.83" y1="754.7" x2="796.07" y2="731.95" gradientTransform="matrix(1, 0, 0, -1, 0, 502)" gradientUnits="userSpaceOnUse"><stop offset="0" stop-color="#ff3a44"/><stop offset="1" stop-color="#c31162"/></linearGradient><linearGradient id="d" x1="801.3" y1="776.82" x2="811.46" y2="766.66" gradientTransform="matrix(1, 0, 0, -1, 0, 502)" gradientUnits="userSpaceOnUse"><stop offset="0" stop-color="#32a071"/><stop offset="0.07" stop-color="#2da771"/><stop offset="0.48" stop-color="#15cf74"/><stop offset="0.8" stop-color="#06e775"/><stop offset="1" stop-color="#00f076"/></linearGradient></defs><title>google-play</title><rect width="135" height="40" rx="5" ry="5"/><path class="a" d="M924-274.2a4.2,4.2,0,0,1,4.2,4.2v30a4.2,4.2,0,0,1-4.2,4.2H799a4.2,4.2,0,0,1-4.2-4.2v-30a4.2,4.2,0,0,1,4.2-4.2H924m0-.8H799a5,5,0,0,0-5,5v30a5,5,0,0,0,5,5H924a5,5,0,0,0,5-5v-30a5,5,0,0,0-5-5h0Z" transform="translate(-794 275)"/><path class="b" d="M862.14-253.25a4.19,4.19,0,0,0-4.27,4.25,4.2,4.2,0,0,0,4.27,4.25,4.2,4.2,0,0,0,4.27-4.25A4.19,4.19,0,0,0,862.14-253.25Zm0,6.83a2.46,2.46,0,0,1-2.4-2.58,2.45,2.45,0,0,1,2.4-2.58,2.45,2.45,0,0,1,2.4,2.58A2.46,2.46,0,0,1,862.14-246.42Zm-9.31-6.83a4.19,4.19,0,0,0-4.27,4.25,4.2,4.2,0,0,0,4.27,4.25,4.2,4.2,0,0,0,4.27-4.25A4.19,4.19,0,0,0,852.82-253.25Zm0,6.83a2.46,2.46,0,0,1-2.4-2.58,2.45,2.45,0,0,1,2.4-2.58,2.45,2.45,0,0,1,2.4,2.58A2.46,2.46,0,0,1,852.82-246.42Zm-11.08-5.53v1.8h4.32a3.77,3.77,0,0,1-1,2.27,4.42,4.42,0,0,1-3.33,1.32,4.74,4.74,0,0,1-4.74-4.8,4.74,4.74,0,0,1,4.74-4.8,4.6,4.6,0,0,1,3.25,1.29l1.27-1.27a6.29,6.29,0,0,0-4.53-1.82,6.7,6.7,0,0,0-6.7,6.61,6.7,6.7,0,0,0,6.7,6.61,6,6,0,0,0,4.61-1.85,6,6,0,0,0,1.56-4.22,5.87,5.87,0,0,0-.1-1.13h-6.07Zm45.31,1.4a4,4,0,0,0-3.64-2.71,4,4,0,0,0-4,4.25,4.16,4.16,0,0,0,4.22,4.25,4.23,4.23,0,0,0,3.54-1.88l-1.45-1a2.43,2.43,0,0,1-2.09,1.18,2.16,2.16,0,0,1-2.06-1.29l5.69-2.35Zm-5.8,1.42a2.33,2.33,0,0,1,2.22-2.48,1.65,1.65,0,0,1,1.58.9ZM876.63-245h1.87v-12.5h-1.87V-245Zm-3.06-7.3H873.5a3,3,0,0,0-2.24-1,4.23,4.23,0,0,0-4.08,4.27,4.21,4.21,0,0,0,4.08,4.24,2.9,2.9,0,0,0,2.24-1h0.06v0.61c0,1.63-.87,2.5-2.27,2.5a2.35,2.35,0,0,1-2.14-1.51l-1.63.68a4.05,4.05,0,0,0,3.77,2.51c2.19,0,4-1.29,4-4.43V-253h-1.77v0.69Zm-2.14,5.88a2.44,2.44,0,0,1-2.37-2.56,2.46,2.46,0,0,1,2.37-2.59A2.4,2.4,0,0,1,873.7-249,2.38,2.38,0,0,1,871.42-246.42Zm24.38-11.08h-4.47V-245h1.87v-4.74h2.61a4,4,0,0,0,4.1-3.88A4,4,0,0,0,895.81-257.5Zm0,6H893.2v-4.29h2.65a2.17,2.17,0,0,1,2.19,2.14A2.18,2.18,0,0,1,895.85-251.48Zm11.53-1.8a3.5,3.5,0,0,0-3.33,1.91l1.66,0.69a1.77,1.77,0,0,1,1.7-.92,1.8,1.8,0,0,1,2,1.61v0.13a4.13,4.13,0,0,0-1.95-.48c-1.79,0-3.6,1-3.6,2.81a2.89,2.89,0,0,0,3.1,2.75,2.63,2.63,0,0,0,2.38-1.22h0.06v1h1.8v-4.79C911.18-252,909.52-253.27,907.39-253.27Zm-0.23,6.85a1.3,1.3,0,0,1-1.46-1.06c0-1,1.06-1.33,2-1.33a3.32,3.32,0,0,1,1.7.42A2.26,2.26,0,0,1,907.16-246.42ZM917.74-253l-2.14,5.42h-0.06L913.32-253h-2l3.33,7.58-1.9,4.21h1.95L919.82-253h-2.07Zm-16.81,8h1.87v-12.5h-1.87V-245Z" transform="translate(-794 275)"/><path class="c" d="M804.44-267.46a2,2,0,0,0-.46,1.4v22.12a2,2,0,0,0,.46,1.4l0.07,0.07,12.39-12.39v-0.29l-12.39-12.39Z" transform="translate(-794 275)"/><path class="d" d="M821-250.72l-4.13-4.13v-0.29l4.13-4.13,0.09,0.05,4.89,2.78c1.4,0.79,1.4,2.09,0,2.89l-4.89,2.78Z" transform="translate(-794 275)"/><path class="e" d="M821.12-250.78L816.9-255l-12.46,12.46a1.63,1.63,0,0,0,2.08.06l14.61-8.3" transform="translate(-794 275)"/><path class="f" d="M821.12-259.22l-14.61-8.3a1.63,1.63,0,0,0-2.08.06L816.9-255Z" transform="translate(-794 275)"/><path class="g" d="M821-250.87l-14.52,8.25a1.67,1.67,0,0,1-2,0h0l-0.07.07h0l0.07,0.07h0a1.66,1.66,0,0,0,2,0l14.61-8.3Z" transform="translate(-794 275)"/><path class="h" d="M804.44-242.68a2,2,0,0,1-.46-1.4v0.15a2,2,0,0,0,.46,1.4l0.07-.07Z" transform="translate(-794 275)"/><path class="h" d="M826-253.7l-5,2.83,0.09,0.09,4.89-2.78a1.75,1.75,0,0,0,1-1.44h0A1.86,1.86,0,0,1,826-253.7Z" transform="translate(-794 275)"/><path class="i" d="M806.51-267.38L826-256.3a1.86,1.86,0,0,1,1,1.3h0a1.75,1.75,0,0,0-1-1.44l-19.5-11.08c-1.4-.79-2.54-0.13-2.54,1.47v0.15C804-267.51,805.12-268.17,806.51-267.38Z" transform="translate(-794 275)"/></svg>