<svg xmlns="http://www.w3.org/2000/svg" width="70" height="72" viewBox="0 0 70 72"><defs><style>.a,.c,.d{fill:none;stroke:#17a4d2;stroke-width:2px;}.a,.d{stroke-miterlimit:10;}.b{fill:#17a4d2;}.c{stroke-linejoin:round;}.d{stroke-linecap:square;}</style></defs><title>high-income</title><polyline class="a" points="56.42 54 69 54 69 16 1 16 1 54 16 54"/><circle class="a" cx="35" cy="35" r="10"/><circle class="a" cx="55" cy="35" r="3"/><circle class="a" cx="14" cy="35" r="3"/><circle class="b" cx="65" cy="26" r="1"/><circle class="b" cx="62" cy="25" r="1"/><circle class="b" cx="60" cy="23" r="1"/><circle class="b" cx="59" cy="20" r="1"/><circle class="b" cx="5" cy="44" r="1"/><circle class="b" cx="8" cy="45" r="1"/><circle class="b" cx="10" cy="47" r="1"/><circle class="b" cx="11" cy="50" r="1"/><circle class="b" cx="65" cy="29" r="1"/><circle class="b" cx="65" cy="32" r="1"/><circle class="b" cx="65" cy="35" r="1"/><circle class="b" cx="65" cy="38" r="1"/><circle class="b" cx="5" cy="29" r="1"/><circle class="b" cx="5" cy="32" r="1"/><circle class="b" cx="5" cy="35" r="1"/><circle class="b" cx="5" cy="38" r="1"/><circle class="b" cx="5" cy="41" r="1"/><circle class="b" cx="11" cy="20" r="1"/><circle class="b" cx="14" cy="20" r="1"/><circle class="b" cx="17" cy="20" r="1"/><circle class="b" cx="20" cy="20" r="1"/><circle class="b" cx="23" cy="20" r="1"/><circle class="b" cx="26" cy="20" r="1"/><circle class="b" cx="29" cy="20" r="1"/><circle class="b" cx="32" cy="20" r="1"/><circle class="b" cx="35" cy="20" r="1"/><circle class="b" cx="38" cy="20" r="1"/><circle class="b" cx="39" cy="11" r="1"/><circle class="b" cx="39" cy="15" r="1"/><circle class="b" cx="31" cy="7" r="1"/><circle class="b" cx="31" cy="11" r="1"/><circle class="b" cx="31" cy="15" r="1"/><circle class="b" cx="41" cy="20" r="1"/><circle class="b" cx="44" cy="20" r="1"/><circle class="b" cx="47" cy="20" r="1"/><circle class="b" cx="50" cy="20" r="1"/><circle class="b" cx="53" cy="20" r="1"/><circle class="b" cx="56" cy="20" r="1"/><circle class="b" cx="14" cy="50" r="1"/><circle class="b" cx="17" cy="50" r="1"/><circle class="b" cx="20" cy="50" r="1"/><circle class="b" cx="23" cy="50" r="1"/><circle class="b" cx="26" cy="50" r="1"/><circle class="b" cx="29" cy="50" r="1"/><circle class="b" cx="32" cy="50" r="1"/><circle class="b" cx="35" cy="50" r="1"/><circle class="b" cx="38" cy="50" r="1"/><circle class="b" cx="41" cy="50" r="1"/><circle class="b" cx="21" cy="63" r="1"/><circle class="b" cx="25" cy="63" r="1"/><circle class="b" cx="29" cy="63" r="1"/><circle class="b" cx="10" cy="23" r="1"/><circle class="b" cx="8" cy="25" r="1"/><circle class="b" cx="5" cy="26" r="1"/><path class="c" d="M315.5,57.1a4,4,0,0,0-4,4v-2a4,4,0,1,0-8,0v2a4,4,0,1,0-8,0v5.5a3.5,3.5,0,1,0-7,0v3.5h31v-9A4,4,0,0,0,315.5,57.1Z" transform="translate(-272.5 -54.1)"/><path class="d" d="M318.5,125.1v-2a7.84,7.84,0,0,1,2.26-5.2l8.7-10.86c0.69-.86,7-8.91,7-8.91a5.7,5.7,0,0,0-5.26-3,10.56,10.56,0,0,0-9.74,6l-8,7h-25l0.36,3.57a7.13,7.13,0,0,0,3.64,5.53v7.9" transform="translate(-272.5 -54.1)"/></svg>