<svg xmlns="http://www.w3.org/2000/svg" width="62" height="63.41" viewBox="0 0 62 63.41"><defs><style>.a{fill:#17a4d2;}.b{fill:none;stroke:#17a4d2;stroke-linecap:square;stroke-miterlimit:10;stroke-width:2px;}</style></defs><title>low-cost</title><path class="a" d="M702-40.7v-2c-4.4-.29-7.16-2.7-7.18-6.27h3.26c0.15,1.83,1.63,3.1,3.92,3.37v-7L700.62-53c-3.43-.88-5.3-2.94-5.3-5.93,0-3.55,2.52-5.9,6.67-6.28V-67.3h2.1v2.12c4,0.35,6.59,2.78,6.68,6.21h-3.21a3.59,3.59,0,0,0-3.47-3.26v6.62l1.43,0.32c3.86,0.94,5.67,2.89,5.67,6.07,0,3.76-2.6,6.12-7.1,6.5v2H702Zm0-15.35v-6.19a3.26,3.26,0,0,0-3.38,3.07C698.6-57.59,699.77-56.5,702-56.05Zm2.1,3.84v6.64c2.43-.14,3.83-1.34,3.83-3.29C707.92-50.63,706.7-51.69,704.09-52.21Z" transform="translate(-672 80)"/><polyline class="b" points="13 1 13 29 1 29 1 32 31 62 61 32 61 29 49 29 49 3"/><circle class="a" cx="53" cy="9" r="1"/><circle class="a" cx="53" cy="13" r="1"/><circle class="a" cx="53" cy="17" r="1"/><circle class="a" cx="53" cy="21" r="1"/><circle class="a" cx="53" cy="25" r="1"/><circle class="a" cx="61" cy="9" r="1"/><circle class="a" cx="61" cy="5" r="1"/><circle class="a" cx="61" cy="17" r="1"/><circle class="a" cx="61" cy="21" r="1"/><circle class="a" cx="61" cy="25" r="1"/><circle class="a" cx="57" cy="21" r="1"/><circle class="a" cx="57" cy="25" r="1"/><circle class="a" cx="9" cy="9" r="1"/><circle class="a" cx="1" cy="17" r="1"/><circle class="a" cx="1" cy="21" r="1"/><circle class="a" cx="1" cy="25" r="1"/><circle class="a" cx="9" cy="13" r="1"/><circle class="a" cx="9" cy="17" r="1"/><circle class="a" cx="9" cy="21" r="1"/><circle class="a" cx="9" cy="25" r="1"/><circle class="a" cx="5" cy="21" r="1"/><circle class="a" cx="5" cy="25" r="1"/></svg>