<svg xmlns="http://www.w3.org/2000/svg" width="60" height="65" viewBox="0 0 60 65"><defs><style>.a,.b{fill:none;stroke:#17a4d2;stroke-miterlimit:10;}.a{stroke-width:2px;}.b{stroke-width:3px;}.c{fill:#17a4d2;}</style></defs><title>safety</title><path class="a" d="M458-84v8a1,1,0,0,0,1,1h2a1,1,0,0,0,1-1v-8a1,1,0,0,0-1-1h-2A1,1,0,0,0,458-84Z" transform="translate(-445 86)"/><path class="a" d="M458-80h-8a4,4,0,0,0-4,4v50a4,4,0,0,0,4,4h50a4,4,0,0,0,4-4V-76a4,4,0,0,0-4-4h-8" transform="translate(-445 86)"/><line class="a" x1="43" y1="6" x2="17" y2="6"/><path class="a" d="M488-84v8a1,1,0,0,0,1,1h2a1,1,0,0,0,1-1v-8a1,1,0,0,0-1-1h-2A1,1,0,0,0,488-84Z" transform="translate(-445 86)"/><line class="a" x1="59" y1="18" x2="1" y2="18"/><polyline class="b" points="45.16 29.23 26.84 46.9 16.96 36.77"/><circle class="c" cx="14" cy="58" r="1"/><circle class="c" cx="18" cy="58" r="1"/><circle class="c" cx="22" cy="58" r="1"/><circle class="c" cx="26" cy="58" r="1"/><circle class="c" cx="30" cy="58" r="1"/><circle class="c" cx="6" cy="58" r="1"/><circle class="c" cx="10" cy="58" r="1"/><circle class="c" cx="46" cy="58" r="1"/><circle class="c" cx="50" cy="58" r="1"/><circle class="c" cx="54" cy="58" r="1"/><circle class="c" cx="38" cy="58" r="1"/><circle class="c" cx="34" cy="58" r="1"/><circle class="c" cx="42" cy="58" r="1"/></svg>