<svg xmlns="http://www.w3.org/2000/svg" width="62" height="62.14" viewBox="0 0 62 62.14"><defs><style>.a,.b{fill:none;stroke:#17a4d2;stroke-linecap:round;stroke-miterlimit:10;stroke-width:2px;}.b{stroke-dasharray:0.1 4;}.c{fill:#17a4d2;}</style></defs><title>simplicity</title><polygon class="a" points="17 8.9 17 22.11 31 31.74 45 22.11 45 8.9 31 1.14 17 8.9"/><polyline class="b" points="17 8.9 31 17.94 45 8.9"/><path class="a" d="M332-23v-5l12.1-14.9a4,4,0,0,0,.9-2.52V-66a3,3,0,0,0-3-3h0a3,3,0,0,0-3,3v17l-3,3" transform="translate(-284 84.14)"/><circle class="c" cx="31" cy="30.14" r="1"/><circle class="c" cx="31" cy="26.14" r="1"/><circle class="c" cx="50" cy="40.14" r="1"/><circle class="c" cx="48" cy="42.14" r="1"/><circle class="c" cx="46" cy="44.14" r="1"/><circle class="c" cx="31" cy="22.14" r="1"/><path class="a" d="M336.17-46.17a2.83,2.83,0,0,0,0-4h0a2.83,2.83,0,0,0-4,0l-9.24,9.24A10,10,0,0,0,320-33.86V-23" transform="translate(-284 84.14)"/><path class="a" d="M294-46l-3-3V-66a3,3,0,0,0-3-3h0a3,3,0,0,0-3,3v20.58a4,4,0,0,0,.9,2.52L298-28v5" transform="translate(-284 84.14)"/><circle class="c" cx="12" cy="40.14" r="1"/><circle class="c" cx="14" cy="42.14" r="1"/><circle class="c" cx="16" cy="44.14" r="1"/><path class="a" d="M310-23V-33.86a10,10,0,0,0-2.93-7.07l-9.24-9.24a2.83,2.83,0,0,0-4,0h0a2.83,2.83,0,0,0,0,4" transform="translate(-284 84.14)"/></svg>