<svg xmlns="http://www.w3.org/2000/svg" width="66" height="66" viewBox="0 0 66 66"><defs><style>.a{fill:#17a4d2;}.b,.c{fill:none;stroke:#17a4d2;stroke-miterlimit:10;}.c{stroke-width:2px;}</style></defs><title>speed</title><circle class="a" cx="11" cy="33" r="1"/><circle class="a" cx="15" cy="33" r="1"/><circle class="a" cx="51" cy="33" r="1"/><circle class="a" cx="55" cy="33" r="1"/><circle class="a" cx="33" cy="11" r="1"/><circle class="a" cx="33" cy="15" r="1"/><circle class="a" cx="33" cy="51" r="1"/><circle class="a" cx="33" cy="55" r="1"/><line class="b" x1="30.5" y1="35.5" x2="19.5" y2="46.5"/><circle class="c" cx="33" cy="33" r="3"/><line class="c" x1="34.22" y1="30.26" x2="41.11" y2="14.72"/><line class="c" x1="35.12" y1="35.12" x2="44.14" y2="44.14"/><circle class="c" cx="33" cy="33" r="32"/><circle class="a" cx="33" cy="6" r="2"/><circle class="a" cx="33" cy="60" r="2"/><circle class="a" cx="60" cy="33" r="2"/><circle class="a" cx="6" cy="33" r="2"/><circle class="a" cx="379.5" cy="-76.38" r="1" transform="translate(-270.96 265.52) rotate(-30)"/><circle class="a" cx="406.5" cy="-29.62" r="1" transform="translate(-290.73 285.29) rotate(-30)"/><circle class="a" cx="373.91" cy="-72.09" r="1" transform="translate(-199.51 329.28) rotate(-45)"/><circle class="a" cx="412.09" cy="-33.91" r="1" transform="translate(-215.32 367.46) rotate(-45)"/><circle class="a" cx="366.92" cy="-59.99" r="1" transform="translate(-30.1 395.95) rotate(-75)"/><circle class="a" cx="419.08" cy="-46.01" r="1" transform="translate(-4.94 456.7) rotate(-75)"/><circle class="a" cx="366.92" cy="-46.01" r="1" transform="translate(-335.59 179.39) rotate(-15)"/><circle class="a" cx="419.08" cy="-59.99" r="1" transform="translate(-330.2 192.42) rotate(-15)"/><circle class="a" cx="373.91" cy="-33.91" r="1" transform="translate(-226.51 340.46) rotate(-45)"/><circle class="a" cx="412.09" cy="-72.09" r="1" transform="translate(-188.32 356.28) rotate(-45)"/><circle class="a" cx="386.01" cy="-26.92" r="1" transform="translate(-47.89 438.9) rotate(-75)"/><circle class="a" cx="399.99" cy="-79.08" r="1" transform="translate(12.85 413.75) rotate(-75)"/><circle class="a" cx="399.99" cy="-26.92" r="1" transform="translate(-339.4 188.6) rotate(-15)"/><circle class="a" cx="386.01" cy="-79.08" r="1" transform="translate(-326.38 183.21) rotate(-15)"/><circle class="a" cx="416.38" cy="-66.5" r="1" transform="translate(-270.96 285.29) rotate(-30)"/><circle class="a" cx="369.62" cy="-39.5" r="1" transform="translate(-290.73 265.52) rotate(-30)"/><circle class="a" cx="369.62" cy="-66.5" r="1" transform="translate(-117.61 372.85) rotate(-60)"/><circle class="a" cx="416.38" cy="-39.5" r="1" transform="translate(-117.61 426.85) rotate(-60)"/><circle class="a" cx="406.5" cy="-76.38" r="1" transform="translate(-90.61 399.85) rotate(-60)"/><circle class="a" cx="379.5" cy="-29.62" r="1" transform="translate(-144.61 399.85) rotate(-60)"/></svg>