<svg xmlns="http://www.w3.org/2000/svg" width="62" height="65" viewBox="0 0 62 65"><defs><style>.a{fill:#17a4d2;}.b{fill:none;stroke:#17a4d2;stroke-miterlimit:10;stroke-width:2px;}</style></defs><title>support</title><circle class="a" cx="39" cy="58" r="1"/><circle class="a" cx="35" cy="58" r="1"/><circle class="a" cx="31" cy="57" r="1"/><circle class="a" cx="28" cy="54" r="1"/><circle class="a" cx="28" cy="4" r="1"/><circle class="a" cx="28" cy="8" r="1"/><circle class="a" cx="28" cy="12" r="1"/><circle class="a" cx="28" cy="16" r="1"/><circle class="a" cx="28" cy="20" r="1"/><circle class="a" cx="28" cy="28" r="1"/><circle class="a" cx="28" cy="36" r="1"/><circle class="a" cx="32" cy="32" r="1"/><circle class="a" cx="24" cy="32" r="1"/><circle class="a" cx="630.83" cy="-55.83" r="1" transform="translate(-375.76 514.71) rotate(-45)"/><circle class="a" cx="625.17" cy="-50.17" r="1" transform="translate(-381.41 512.37) rotate(-45)"/><circle class="a" cx="630.83" cy="-50.17" r="1" transform="translate(-379.76 516.37) rotate(-45)"/><circle class="a" cx="625.17" cy="-55.83" r="1" transform="translate(-377.41 510.71) rotate(-45)"/><path class="b" d="M640-20v-7h6a8,8,0,0,0,8-8v-8l6-3.06a1.86,1.86,0,0,0,.76-2.6L654-60.11C654-72,645-84,628-84c-15,0-27,12.08-27,26.1C601-42,614-38,614-26.27V-20" transform="translate(-600 85)"/><circle class="b" cx="28" cy="32" r="9"/><circle class="b" cx="45" cy="49" r="3"/><line class="b" x1="32" y1="24" x2="32" y2="1.3"/><line class="b" x1="24" y1="24" x2="24" y2="1.3"/><line class="b" x1="34" y1="38" x2="43" y2="47"/></svg>