<svg xmlns="http://www.w3.org/2000/svg" width="62" height="65" viewBox="0 0 62 65"><defs><style>.a{fill:none;stroke:#17a4d2;stroke-miterlimit:10;stroke-width:2px;}</style></defs><title>support-simple</title><path class="a" d="M54.5-53v-7h6a8,8,0,0,0,8-8v-8l6-3.06a1.86,1.86,0,0,0,.76-2.6L68.5-93.11c0-11.89-9-23.89-26-23.89-15,0-27,12.08-27,26.1,0,15.9,13,19.9,13,31.64V-53" transform="translate(-14.5 118)"/><circle class="a" cx="28" cy="32" r="9"/><circle class="a" cx="45" cy="49" r="3"/><line class="a" x1="32" y1="24" x2="32" y2="1.3"/><line class="a" x1="24" y1="24" x2="24" y2="1.3"/><line class="a" x1="34" y1="38" x2="43" y2="47"/></svg>