<svg xmlns="http://www.w3.org/2000/svg" xmlns:xlink="http://www.w3.org/1999/xlink" width="1700" height="549.65" viewBox="0 0 1700 549.65"><defs><style>.a,.b{fill:none;}.b{stroke:#d6d6d6;stroke-miterlimit:10;stroke-width:2px;}.c{fill:#aaa;}.d{fill:#fff;}.e{fill:url(#a);}.f{fill:#d6d6d6;}</style><pattern id="a" width="5" height="5" patternTransform="matrix(1, 0, 0, -1, -89, 134.2)" patternUnits="userSpaceOnUse" viewBox="0 0 5 5"><rect class="a" width="5" height="5"/><path class="a" d="M0,5H5V0H0V5Z"/><path d="M0,5H2V3H0V5Z"/></pattern></defs><title>uberx</title><path class="b" d="M-155,1483.34H295m-250,50H295m-400,50H295m-350-100,50-50,50,50m50-50,50,50m50-50,50,50m-100,0,150-150m-350,250,250-250m-250,350,100-100m-50-150H295m0-100v500m200-500v500m400-500v500m350-500v500m-200-500v500m-800-350v200m-100,0v-200m-200,200v-200m20,25h10v25H-35v-25Zm100,0H75v25H65v-25Zm50,0h10v25H115v-25Zm50,0h10v25H165v-25Zm51,0h10v25H216v-25Zm50,0h10v25H266v-25Zm-201,50H75v25H65v-25Zm100,0h10v25H165v-25Zm101,0h10v25H266v-25Zm-171,125v-100a25,25,0,0,1,50,0v100" transform="translate(205 -1332.34)"/><path class="b" d="M135,1683.34v-100a15,15,0,0,0-30,0v100m90,0v-125h50v125" transform="translate(205 -1332.34)"/><path class="b" d="M205,1683.34v-115h30v115m10,0-100,100m50-100-100,100" transform="translate(205 -1332.34)"/><circle class="b" cx="250" cy="351" r="50"/><circle class="b" cx="600" cy="151" r="100"/><circle class="b" cx="450" cy="451" r="50"/><circle class="b" cx="150" cy="451" r="50"/><path class="b" d="M45,1483.34v350m-100-350v-150m350,450H45m200,0v50m-300-100v100m450-450v450" transform="translate(205 -1332.34)"/><circle class="b" cx="1350" cy="151" r="100"/><path class="b" d="M1145,1383.34v450m-249.3-400H496m-1,0,150,150m-100-150,150,150m-100-150,150,150m-100-150,150,150m-100-150,150,150m-100-150,150,150m-100-150,150,150m-100-150,150,150m-100-150,150,150m-400,0a35.37,35.37,0,0,0,50,0,35.37,35.37,0,0,0,50,0,35.37,35.37,0,0,0,50,0,35.37,35.37,0,0,0,50,0,35.37,35.37,0,0,0,50,0,35.37,35.37,0,0,0,50,0,35.37,35.37,0,0,0,50,0,35.37,35.37,0,0,0,50,0m-550,200.4a35.37,35.37,0,0,0-50,0,35.37,35.37,0,0,0-50,0,35.37,35.37,0,0,0-50,0,35.37,35.37,0,0,0-50,0m400-450.4v50H545v-50m300,0v50H745v-50m650,0v50H1295v-50m151,350H-155m500,100v50m100-50v50m800-150,50,50h151" transform="translate(205 -1332.34)"/><path class="b" d="M1295,1733.34a25,25,0,0,1,25-25c13.8,0,25,12.2,25,26m0-1a25,25,0,0,1,50,0m0,0a25,25,0,0,1,50,0m-75-25a25,25,0,0,1,50,0m-100,0a25,25,0,0,1,50,0m-100,0a25,25,0,0,1,50,0m-25,25v100m-1500,0H1495m-50-350H1245m50,0v-50h150m-700,200H845v200H745v-200Zm-200,0H695v150H545v-150Zm400,0h100v150H945v-150Zm325,75h176m-151-275,50,50m0-50,50,50m0-50,50,50m1,100H645m700,0-250,250m-1300-500H1495" transform="translate(205 -1332.34)"/><circle cx="1344.51" cy="475.07" r="74.58"/><path class="c" d="M37.57,1842.94H1268.11a18.78,18.78,0,0,0,1.89-8.21v-36.21a79.81,79.81,0,0,0-56.83-76.29l-179.22-54.09q-15.58-4.69-30.67-10.84l-63.43-25.78a827.15,827.15,0,0,0-311.39-60.85H413.87a827.29,827.29,0,0,0-209.23,26.89L59.07,1635.63a6.71,6.71,0,0,0-5,6.48V1733a6.71,6.71,0,0,1-2,4.73l-18.25,18.2A47.14,47.14,0,0,0,20,1789.29V1806A47.51,47.51,0,0,0,37.57,1842.94Z" transform="translate(205 -1332.34)"/><path class="d" d="M628.49,1599.07l0.62,0.17q11.52,3.11,23,6.56l2.68,0.82,8.74,2.68,3,1q4.76,1.53,9.52,3.13l1.69,0.56q5.61,1.89,11.19,3.86l2.39,0.86q4.31,1.54,8.61,3.13l3.5,1.34q3.93,1.48,7.85,3l3.27,1.26,10.82,4.31,63.43,25.83q15.08,6.14,30.67,10.85l1.34,0.4H954.11a6.71,6.71,0,0,0,2.53-12.92l-22.8-9.27a805.73,805.73,0,0,0-305.35-59.82H576Q602.44,1592.05,628.49,1599.07Z" transform="translate(205 -1332.34)"/><path d="M956.61,1655.84l-22.8-9.27A807.4,807.4,0,0,0,763.11,1598l70.78,70.78H954A6.71,6.71,0,0,0,956.61,1655.84Z" transform="translate(205 -1332.34)"/><path class="d" d="M1051,1731.93H971.34a6.06,6.06,0,0,0-4.28,10.34l14.38,14.38a38.47,38.47,0,0,0,27.2,11.27h79.67a6.06,6.06,0,0,0,4.28-10.34l-14.38-14.39a38.45,38.45,0,0,0-27.2-11.25h0Z" transform="translate(205 -1332.34)"/><path d="M739.49,1668.76a6.71,6.71,0,0,0,2.53-12.92l-22.8-9.27a809.51,809.51,0,0,0-487-39.16,13.57,13.57,0,0,0-6.5,22.8l23.63,23.62a51,51,0,0,0,36,14.93h454.1Z" transform="translate(205 -1332.34)"/><path class="c" d="M751,1675.58l-31.72-12.92q-25.75-10.49-52-19.14a6.71,6.71,0,0,0-8.84,6.36v38.61h90A6.71,6.71,0,0,0,751,1675.58Z" transform="translate(205 -1332.34)"/><path d="M1052.73,1842.94H37.44a47.49,47.49,0,0,0,30.14,10.73h968.09A19,19,0,0,0,1052.73,1842.94ZM92.92,1681.08L54,1642.19v91.09l38.89-38.89a9.39,9.39,0,0,0,0-13.28l0,0h0Zm929,109h-12.74a6.71,6.71,0,0,0-6.71,6.71v21.28a19.45,19.45,0,0,0,19.43,19.46h0v-39.06h14.4a8.4,8.4,0,0,0,8.4-8.4h-22.8Z" transform="translate(205 -1332.34)"/><path class="d" d="M1237.18,1767.91h26.53a80.12,80.12,0,0,0-16.51-24.7l-14.36,14.36a6.06,6.06,0,0,0,4.35,10.34h0Z" transform="translate(205 -1332.34)"/><path d="M1149.18,1757.18h-45.36a1.34,1.34,0,0,0-1,2.29l6.48,6.48a6.71,6.71,0,0,0,4.75,2h45.37a1.34,1.34,0,0,0,1-2.29l-6.48-6.48A6.71,6.71,0,0,0,1149.18,1757.18Zm30.24,10.73h32a6.71,6.71,0,0,0,4.75-2l6.48-6.48a1.34,1.34,0,0,0-1-2.29h-32a6.71,6.71,0,0,0-4.75,2l-6.48,6.48A1.34,1.34,0,0,0,1179.43,1767.91Zm80,75.32-26.33-25.62a34,34,0,0,0-23.71-9.55h-93.05a34,34,0,0,0-23.71,9.55l-26.33,25.62h-36.35v10.43h221.3a19.19,19.19,0,0,0,13.41-5.36,18.51,18.51,0,0,0,3.65-5h-8.88v0Z" transform="translate(205 -1332.34)"/><circle class="d" cx="1374.45" cy="422.44" r="8.02"/><path class="e" d="M372.74,1768.22H694.62a53.65,53.65,0,0,1,53.65,53.65H319.09A53.65,53.65,0,0,1,372.74,1768.22Z" transform="translate(205 -1332.34)"/><path d="M299,1853.67v-46.43c0-46.94-38.43-85-85.84-85s-85.84,38.06-85.84,85v46.43" transform="translate(205 -1332.34)"/><circle cx="417.46" cy="475.06" r="74.44"/><circle class="d" cx="418.09" cy="475.07" r="50.3"/><path class="f" d="M213.13,1772.83v25.68a8.89,8.89,0,0,1,8.89,8.89h25.7a34.58,34.58,0,0,0-34.58-34.58h0Zm-8.92,34.58h-25.7A34.58,34.58,0,0,0,213.09,1842h0V1816.3a8.89,8.89,0,0,1-8.92-8.87v0Z" transform="translate(205 -1332.34)"/><path d="M768.39,1853.67v-46.94a85.84,85.84,0,1,1,171.67,0v46.94" transform="translate(205 -1332.34)"/><circle cx="1058.56" cy="475.06" r="74.44"/><circle class="d" cx="1059.15" cy="475.07" r="50.3"/><path class="f" d="M878.61,1783l-18.16,18.16a8.89,8.89,0,0,1,0,12.57l18.16,18.16A34.58,34.58,0,0,0,878.61,1783Zm-30.74,18.16L829.71,1783a34.58,34.58,0,0,0,0,48.9h0l18.16-18.16a8.89,8.89,0,0,1,0-12.58h0Z" transform="translate(205 -1332.34)"/><path class="e" d="M53.53,1768.22H78.8a28.37,28.37,0,0,1,28.38,28.35h0v25.28H81.87a28.37,28.37,0,0,1-28.34-28.37v-25.28Z" transform="translate(205 -1332.34)"/><rect x="1341.64" y="481.78" width="65.61" height="23.34" rx="3.55" ry="3.55"/></svg>