<svg xmlns="http://www.w3.org/2000/svg" xmlns:xlink="http://www.w3.org/1999/xlink" width="1700" height="548.5" viewBox="0 0 1700 548.5"><defs><style>.a,.b,.c{fill:none;}.b,.c{stroke:#d6d6d6;stroke-width:2px;}.b{stroke-miterlimit:10;}.c{stroke-linejoin:bevel;}.d{fill:#414141;}.e{fill:#fff;}.f{fill:#d6d6d6;}.g{fill:url(#a);}.h{fill:#aaa;}</style><pattern id="a" width="5" height="5" patternTransform="matrix(1, 0, 0, -1, 4, 504)" patternUnits="userSpaceOnUse" viewBox="0 0 5 5"><rect class="a" width="5" height="5"/><path class="a" d="M0,5H5V0H0V5Z"/><path d="M0,5H2V3H0V5Z"/></pattern></defs><title>uberselect</title><path class="b" d="M134,676.17h10m-5-5v10m-230,75h10m-5-5v10m170-5H94m-5-5v10" transform="translate(211 -655.17)"/><circle class="b" cx="300" cy="51" r="2.5"/><circle class="b" cx="478" cy="51" r="2.5"/><circle class="b" cx="150" cy="31" r="2.5"/><circle class="b" cx="250" cy="19" r="2.5"/><path class="b" d="M-61,706.17H39v450H-61v-450Zm0,50H39m-100-25H39m-100,50H39m268-75h64m-64-25h64m-64,50h64m-432,75H39m-100,25H39m-100,25H39m-100,25H39m-100,25H39m-100-100h-50m80-100v-50m41,50v-50m29,175H239v325H39v-325Z" transform="translate(211 -655.17)"/><path class="b" d="M139,706.17H239v450H139v-450Z" transform="translate(211 -655.17)"/><path class="b" d="M64,856.17H214v25H64v-25Zm0,50H214v25H64v-25Zm0,50H214v25H64v-25Zm0,50H214v25H64v-25Zm0,50H214v25H64v-25Zm-125.3-50a50,50,0,0,0-50,50h100A50,50,0,0,0-61.3,1006.17Zm350.3-150a50,50,0,0,0-50,50H339A50,50,0,0,0,289,856.17Zm100,0a50,50,0,0,0-50,50H439A50,50,0,0,0,389,856.17Zm100,0a50,50,0,0,0-50,50H539A50,50,0,0,0,489,856.17Zm100,0a50,50,0,0,0-50,50H639A50,50,0,0,0,589,856.17Zm-600,200v100m-50-150H70m-81,50H70m-131-125H39m-100,25H39m600-275H739m-100-25H739m-100,50H739m-100,25H739m-100,25H739m-100,25H739m-100,25H739m-100,25H739m-100,25H739m-132-100h12v50H607v-50Zm-48,0h11v50H559v-50Zm24,0h12v50H583v-50Zm24-75h12v50H607v-50Zm-48,0h11v50H559v-50Zm24,0h12v50H583v-50Z" transform="translate(211 -655.17)"/><path class="b" d="M239,831.17H639v70m-400-128H339v58m50-58h50" transform="translate(211 -655.17)"/><path class="b" d="M289,656.17H389v175H289v-175Zm350,0H739v250H639v-250Zm-200,0H539v250H439v-250Zm50,175v-39m0-14v-19m-16,72v-39m0-14v-19m-15,72v-39m0-14v-19m47,72v-39m0-14v-19m15,72v-39m0-14v-19m-31,0v-19m0-14v-19m-16,52v-19m0-14v-19m-15,52v-19m0-14v-19m47,52v-19m0-14v-19m15,52v-19m0-14v-19m-31,1v-19m0-14v-19m-16,52v-19m0-14v-19m-15,52v-19m0-14v-19m47,52v-19m0-14v-19m15,52v-19m0-14v-19m619,100H839m100,100h200m-400,0v300m200-300v300m150-300v300m-50-300h100v300H1039v-300Z" transform="translate(211 -655.17)"/><path class="c" d="M739,856.77a35.37,35.37,0,0,0,50,0,35.37,35.37,0,0,0,50,0,35.37,35.37,0,0,0,50,0,35.37,35.37,0,0,0,50,0,35.37,35.37,0,0,0,50,0,35.37,35.37,0,0,0,50,0,35.37,35.37,0,0,0,50,0,35.37,35.37,0,0,0,50,0" transform="translate(211 -655.17)"/><path class="b" d="M839,756.17a100,100,0,0,1,100,100H739A100,100,0,0,1,839,756.17Zm49.3,13H1139m0,12H905.1m12.4,12H1139m-213.4,13H1139m-207.1,13H1139m-203.2,12H1139m0-75H839m300,87H938.3m163.7,156a5,5,0,0,1-5,5h-16a5,5,0,0,1-5-5v-40a5,5,0,0,1,5-5h16a5,5,0,0,1,5,5v40Zm337,57a106.1,106.1,0,0,1-150,0,106.1,106.1,0,0,1-150,0m150,0v100m-700-100a106.1,106.1,0,0,1-150,0m300,0a106.1,106.1,0,0,1-150,0m0,0v100m-150-100v100m0-100a106.1,106.1,0,0,1-150,0m0,0v100" transform="translate(211 -655.17)"/><path class="b" d="M1389,1056.17a50,50,0,0,1-50-50v-200a50,50,0,0,1,50-50m0,0v400m-150-100a50,50,0,0,1-50-50v-200a50,50,0,0,1,100,0v200A50,50,0,0,1,1239,1056.17Zm0-300v400m-100-400h251m-1,249.7-49.5-49.4m-100.8,49.4-49.4-49.4m49.4-50.3,50-50m-149.7,0v-200m100,0v62h-50v-62m150,0v62h-50v-62m-100,50h50m50,0h50m-1100,207c17.9,0,17.9,8,35.7,8s17.9-8,35.7-8,17.9,8,35.7,8,17.9-8,35.7-8,17.9,8,35.7,8,17.9-8,35.7-8,17.9,8,35.7,8,17.9-8,35.7-8,17.9,8,35.7,8,17.9-8,35.7-8,17.9,8,35.7,8,17.9-8,35.7-8,17.9,8,35.7,8,17.9-8,35.7-8M239,925.47c17.9,0,17.9,8,35.7,8s17.9-8,35.7-8,17.9,8,35.7,8,17.9-8,35.7-8,17.9,8,35.7,8,17.9-8,35.7-8,17.9,8,35.7,8,17.9-8,35.7-8,17.9,8,35.7,8,17.9-8,35.7-8,17.9,8,35.7,8,17.9-8,35.7-8,17.9,8,35.7,8,17.9-8,35.7-8M239,937.87c17.9,0,17.9,8,35.7,8s17.9-8,35.7-8,17.9,8,35.7,8,17.9-8,35.7-8,17.9,8,35.7,8,17.9-8,35.7-8,17.9,8,35.7,8,17.9-8,35.7-8,17.9,8,35.7,8,17.9-8,35.7-8,17.9,8,35.7,8,17.9-8,35.7-8,17.9,8,35.7,8,17.9-8,35.7-8M239,950.17c17.9,0,17.9,8,35.7,8s17.9-8,35.7-8,17.9,8,35.7,8,17.9-8,35.7-8,17.9,8,35.7,8,17.9-8,35.7-8,17.9,8,35.7,8,17.9-8,35.7-8,17.9,8,35.7,8,17.9-8,35.7-8,17.9,8,35.7,8,17.9-8,35.7-8,17.9,8,35.7,8,17.9-8,35.7-8M239,962.47c17.9,0,17.9,8,35.7,8s17.9-8,35.7-8,17.9,8,35.7,8,17.9-8,35.7-8,17.9,8,35.7,8,17.9-8,35.7-8,17.9,8,35.7,8,17.9-8,35.7-8,17.9,8,35.7,8,17.9-8,35.7-8,17.9,8,35.7,8,17.9-8,35.7-8,17.9,8,35.7,8,17.9-8,35.7-8M239,974.87c17.9,0,17.9,8,35.7,8s17.9-8,35.7-8,17.9,8,35.7,8,17.9-8,35.7-8,17.9,8,35.7,8,17.9-8,35.7-8,17.9,8,35.7,8,17.9-8,35.7-8,17.9,8,35.7,8,17.9-8,35.7-8,17.9,8,35.7,8,17.9-8,35.7-8,17.9,8,35.7,8,17.9-8,35.7-8M239,987.17c17.9,0,17.9,8,35.7,8s17.9-8,35.7-8,17.9,8,35.7,8,17.9-8,35.7-8,17.9,8,35.7,8,17.9-8,35.7-8,17.9,8,35.7,8,17.9-8,35.7-8,17.9,8,35.7,8,17.9-8,35.7-8,17.9,8,35.7,8,17.9-8,35.7-8,17.9,8,35.7,8,17.9-8,35.7-8m-849.8-331H1389m-1231,50v125m15-125v125m16-125v125m16-125v125m16-125v125m-432,325H1489m-1250-100h50" transform="translate(211 -655.17)"/><circle class="d" cx="1321.62" cy="473.26" r="75.23"/><path class="d" d="M1257.29,1157.55v-57.2a93.12,93.12,0,0,0-3.31-24.65,13,13,0,0,1-3.08-2.45,12.18,12.18,0,0,0-8.9-3.9h-2.87a11,11,0,0,1-7.79-3.22l-5.68-5.68a1.5,1.5,0,0,1,.91-2.54l19.45-2a91,91,0,0,0-71.16-47.22l-152.65-15a156.26,156.26,0,0,1-54.43-15l-77.11-37.33a463.41,463.41,0,0,0-201.88-46.34H422.27a463.39,463.39,0,0,0-177.85,35.49L134.51,976.26a107.93,107.93,0,0,1-41.43,8.27H54.91a14.27,14.27,0,0,0-14,11.42l-14.38,70.19A26.41,26.41,0,0,1,22,1076.37l-1.35,1.91A34.62,34.62,0,0,0,14,1098.67v16.75a42.87,42.87,0,0,0,36.41,42.39l25,3.8h1183a17.07,17.07,0,0,1-1.07-4.06h0Z" transform="translate(211 -655.17)"/><path d="M1262.91,1168.48a15.65,15.65,0,0,1-4.26-6.87h-17.59l-12.18-5.9c-4.41-2-10.11-2.22-14.88-2.22H1085.48c-4.84,0-10.25.22-14.67,2.22l-12.39,5.9H927.19v-33.82a86.58,86.58,0,0,0-173.17,0v33.82H329.22v-32.47c0-47.84-39.07-87.94-86.9-87.94s-86.27,40.1-86.27,87.94v32.47H77.59l90.64,13.53H1260A3.94,3.94,0,0,0,1262.91,1168.48Z" transform="translate(211 -655.17)"/><path class="e" d="M1225.64,1060.45l5.68,5.68a11,11,0,0,0,7.79,3.22H1242a12.18,12.18,0,0,1,8.9,3.9,13,13,0,0,0,3.67,2.77,91.6,91.6,0,0,0-8.12-20.13l-19.83,2a1.5,1.5,0,0,0-1,2.56h0Z" transform="translate(211 -655.17)"/><path d="M1223.84,1126.43a2.5,2.5,0,0,0-1.77,4.29l10.82,10.82a30.33,30.33,0,0,0,21.46,8.89h2.95v-24h-33.46ZM925.58,984.65a10.08,10.08,0,0,0-5.41-11.36L884,955.7A450,450,0,0,0,743.2,914l78.09,78.47h94.48a10,10,0,0,0,9.81-7.85h0ZM37.17,1044.78a23,23,0,0,0,22.39-17.9L65,1003A5.79,5.79,0,0,0,59.33,996H40.92l-10,48.83h6.26Z" transform="translate(211 -655.17)"/><circle class="d" cx="453.34" cy="473.26" r="75.23"/><circle class="e" cx="453.34" cy="473.26" r="50.73"/><path class="f" d="M242.34,1093.56v25.91a9,9,0,0,1,9,9h25.91A34.88,34.88,0,0,0,242.34,1093.56Zm-9,34.88H207.46a34.88,34.88,0,0,0,34.88,34.88V1137.4a9,9,0,0,1-9-9h0Z" transform="translate(211 -655.17)"/><circle class="d" cx="1051.14" cy="473.26" r="75.23"/><circle class="e" cx="1051.14" cy="473.26" r="50.73"/><path class="f" d="M864.8,1103.77l-18.32,18.33a9,9,0,0,1,0,12.68l18.32,18.32a34.88,34.88,0,0,0,0-49.32h0Zm-31,18.33-18.32-18.32a34.88,34.88,0,0,0,0,49.32h0l18.32-18.33a9,9,0,0,1,0-12.68h0Z" transform="translate(211 -655.17)"/><path class="g" d="M674.84,1083.22H407.69a58.43,58.43,0,0,0-58.43,58.43H733.34a58.43,58.43,0,0,0-58.43-58.43h-0.07Z" transform="translate(211 -655.17)"/><path d="M244.17,985.73H698.84a3.26,3.26,0,0,0,1.35-6.18l-36-17.43a443,443,0,0,0-191.88-44h-23a438.21,438.21,0,0,0-169,33.73l-39.65,16.48c-9.12,3.8-6.4,17.44,3.52,17.44h0Z" transform="translate(211 -655.17)"/><path class="e" d="M472.33,918.09a443,443,0,0,1,192,44l36,17.43a3.26,3.26,0,0,1-1.35,6.18H244.17c-9.92,0-12.64-13.64-3.48-17.44l39.65-16.48a438.21,438.21,0,0,1,169-33.73h23m0-6.76h-23a445,445,0,0,0-171.63,34.24L238.08,962a15.83,15.83,0,0,0,6.09,30.45H698.84a10,10,0,0,0,4.37-19l-36-17.49a449.78,449.78,0,0,0-194.91-44.64h0Z" transform="translate(211 -655.17)"/><path class="d" d="M689.44,993.66l-36-17.4q-10.93-5.29-22.16-10a10,10,0,0,0-13.84,9.2v24.35H688a3.26,3.26,0,0,0,1.41-6.18h0Z" transform="translate(211 -655.17)"/><path d="M1075.39,1126.43h-45.61a17.66,17.66,0,0,0-12.74,5.41l-12,12.55a3.52,3.52,0,0,0,2.54,6h37.35a30.33,30.33,0,0,0,21.46-8.89l10.82-10.82A2.5,2.5,0,0,0,1075.39,1126.43Z" transform="translate(211 -655.17)"/><rect class="f" x="1334.36" y="486.14" width="66.29" height="23" rx="3.59" ry="3.59"/><path class="g" d="M47.82,1083.22H111.1a24.35,24.35,0,0,1,24.35,24.35v34.05H77.8a30,30,0,0,1-30-30v-28.45Z" transform="translate(211 -655.17)"/><path class="e" d="M1072.67,1057.91l-93.9-9.47a2.26,2.26,0,0,0-1.85,3.82l18.94,19.81a17,17,0,0,0,12.26,5.22h31.44a12,12,0,0,0,8.73-4.06,12.18,12.18,0,0,1,8.9-3.9h2.88a11,11,0,0,0,7.79-3.22l5.68-5.68A1.49,1.49,0,0,0,1072.67,1057.91Z" transform="translate(211 -655.17)"/><path class="h" d="M1206.06,1115.61l1.18-2.71H1093.6l1.18,2.71h111.29m-116.52-12.18,1.19,2.71h119.38l1.19-2.71H1089.54m-4.06-8.12,1.18,2.71h126.17l1.18-2.71H1085.48m2.75-25.7-2.75,2.71h129.88l-2.75-2.71H1088.23m-6.8,17.59,1.19,2.71h134.26l1.19-2.71H1081.42m0.54-9.47a11.33,11.33,0,0,0-.54,2.71h139.35a11.33,11.33,0,0,0-.54-2.71H1082Z" transform="translate(211 -655.17)"/><path class="e" d="M1208.88,1066.23l7.1,7.09a11.53,11.53,0,0,1,2.45,12.84l-13.11,30.14a5.21,5.21,0,0,1-4.84,3.37H1100.36a5.21,5.21,0,0,1-4.84-3.37l-13.11-30.14a11.54,11.54,0,0,1,2.45-12.84l7.1-7.09a6.86,6.86,0,0,1,4.87-2H1204m0-6.76H1096.83a13.69,13.69,0,0,0-9.67,4.06l-7.09,7a18.36,18.36,0,0,0-3.87,20.29l13.11,30.14a12.39,12.39,0,0,0,11.36,7.44h99.52a12.39,12.39,0,0,0,11.36-7.44l13.11-30.14a18.36,18.36,0,0,0-3.87-20.29l-7.12-7a13.69,13.69,0,0,0-9.67-4.06h0Z" transform="translate(211 -655.17)"/><path class="f" d="M1176.64,1076.37h-40.26a7.44,7.44,0,1,0,0,14.88h40.25A7.44,7.44,0,0,0,1176.64,1076.37Z" transform="translate(211 -655.17)"/><path class="e" d="M689.29,911.32h-94.9a463.35,463.35,0,0,1,80.42,30.1l77.11,37.33a156.22,156.22,0,0,0,43.94,13.75h25.42l-77.4-77.78a444,444,0,0,0-54.59-3.4h0Z" transform="translate(211 -655.17)"/></svg>