<svg xmlns="http://www.w3.org/2000/svg" width="110.77" height="40" viewBox="0 0 110.77 40"><defs><style>.a{fill:#0078d5;}.b{fill:#fff;}</style></defs><title>windows-store</title><rect class="a" width="110.77" height="40"/><path class="b" d="M1212.7-256.27l-8.44-1.18v-7.1h8.44v8.29Zm0-8.92h-8.44v-6.71l8.44-1.18v7.9Zm11.5,10.54-10.87-1.55v-8.35h10.87v9.9Zm0-10.54h-10.87v-8l10.87-1.55v9.51Z" transform="translate(-1196.47 284.45)"/><path class="b" d="M1235.55-268.47a3.94,3.94,0,0,1-1.63.3,2.9,2.9,0,0,1-3.06-3.15,3.09,3.09,0,0,1,3.23-3.27,3.3,3.3,0,0,1,1.47.28l-0.19.66a2.89,2.89,0,0,0-1.25-.26,2.31,2.31,0,0,0-2.41,2.57,2.26,2.26,0,0,0,2.38,2.5,3.18,3.18,0,0,0,1.3-.26Z" transform="translate(-1196.47 284.45)"/><path class="b" d="M1237-272.74v1.94h0.19l1.67-1.94h1l-1.94,2a1.87,1.87,0,0,1,1.5,1.36,9.47,9.47,0,0,0,.48,1.09H1239a6,6,0,0,1-.41-0.91,1.44,1.44,0,0,0-1.47-1.05H1237v2h-0.8v-4.47h0.8Z" transform="translate(-1196.47 284.45)"/><path class="b" d="M1242.89-268.27l-0.06-.56h0a1.65,1.65,0,0,1-1.36.67,1.27,1.27,0,0,1-1.36-1.28c0-1.08,1-1.67,2.67-1.66v-0.09a0.92,0.92,0,0,0-1-1,2.2,2.2,0,0,0-1.16.33l-0.18-.54a2.75,2.75,0,0,1,1.46-.4,1.58,1.58,0,0,1,1.69,1.83v1.67a6.33,6.33,0,0,0,.07,1.07h-0.73Zm-0.12-2.28c-0.88,0-1.88.14-1.88,1a0.72,0.72,0,0,0,.76.78,1.11,1.11,0,0,0,1.07-.75,0.85,0.85,0,0,0,0-.26v-0.78Z" transform="translate(-1196.47 284.45)"/><path class="b" d="M1245.12-272.74v1.47a0.82,0.82,0,0,0,.92,1,1.66,1.66,0,0,0,1-.31v-2.11h0.8v4.47H1247v-1.79h0a2.32,2.32,0,0,1-1.2.34,1.32,1.32,0,0,1-1.46-1.46v-1.56h0.81Z" transform="translate(-1196.47 284.45)"/><path class="b" d="M1251.32-268.27l-0.06-.56h0a1.65,1.65,0,0,1-1.36.67,1.27,1.27,0,0,1-1.36-1.28c0-1.08,1-1.67,2.67-1.66v-0.09a0.92,0.92,0,0,0-1-1,2.2,2.2,0,0,0-1.16.33l-0.18-.54a2.74,2.74,0,0,1,1.46-.4A1.58,1.58,0,0,1,1252-271v1.67a6.33,6.33,0,0,0,.07,1.07h-0.73Zm-0.12-2.28c-0.88,0-1.88.14-1.88,1a0.72,0.72,0,0,0,.76.78,1.11,1.11,0,0,0,1.07-.75,0.85,0.85,0,0,0,0-.26v-0.78Z" transform="translate(-1196.47 284.45)"/><path class="b" d="M1256-272.74v0.65h-1.39v3.82h-0.8v-3.82h-1.39v-0.65H1256Z" transform="translate(-1196.47 284.45)"/><path class="b" d="M1257.35-272.74v1.52a4.47,4.47,0,0,1,.73,0c1,0,2.06.31,2.06,1.51a1.27,1.27,0,0,1-.47,1,3.07,3.07,0,0,1-1.93.52,10.94,10.94,0,0,1-1.19-.06v-4.45h0.8Zm0,3.91a4.64,4.64,0,0,0,.6,0,1.16,1.16,0,0,0,1.39-1,1.16,1.16,0,0,0-1.4-.94,3.77,3.77,0,0,0-.58,0v1.81Z" transform="translate(-1196.47 284.45)"/><path class="b" d="M1263.87-272.74v1.8H1266v-1.8h0.8v4.47H1266v-2h-2.11v2h-0.8v-4.47h0.8Z" transform="translate(-1196.47 284.45)"/><path class="b" d="M1270.31-268.27l-0.06-.56h0a1.65,1.65,0,0,1-1.36.67,1.27,1.27,0,0,1-1.36-1.28c0-1.08,1-1.67,2.67-1.66v-0.09a0.92,0.92,0,0,0-1-1,2.2,2.2,0,0,0-1.16.33l-0.18-.54a2.75,2.75,0,0,1,1.46-.4A1.58,1.58,0,0,1,1271-271v1.67a6.33,6.33,0,0,0,.07,1.07h-0.73Zm-0.12-2.28c-0.88,0-1.88.14-1.88,1a0.72,0.72,0,0,0,.76.78,1.11,1.11,0,0,0,1.07-.75,0.85,0.85,0,0,0,0-.26v-0.78Z" transform="translate(-1196.47 284.45)"/><path class="b" d="M1233.13-254.6l-2.4-9.51H1232l1.12,4.81c0.28,1.19.53,2.37,0.7,3.29h0c0.15-.95.45-2.07,0.77-3.3l1.26-4.8h1.28l1.15,4.83c0.27,1.13.52,2.26,0.66,3.26h0c0.2-1,.46-2.1.76-3.29l1.25-4.8h1.25l-2.68,9.51h-1.28l-1.19-5a28.8,28.8,0,0,1-.62-3.1h0a29.87,29.87,0,0,1-.73,3.1l-1.35,5h-1.28Z" transform="translate(-1196.47 284.45)"/><path class="b" d="M1244.52-263.35a0.73,0.73,0,0,1-.79.76,0.74,0.74,0,0,1-.74-0.76,0.75,0.75,0,0,1,.77-0.78A0.73,0.73,0,0,1,1244.52-263.35Zm-1.37,8.75v-6.83h1.23v6.83h-1.23Z" transform="translate(-1196.47 284.45)"/><path class="b" d="M1245.92-259.58c0-.71,0-1.28-0.06-1.85H1247l0.07,1.13h0a2.49,2.49,0,0,1,2.24-1.28c0.94,0,2.4.56,2.4,2.91v4.08h-1.23v-3.94c0-1.1-.41-2-1.57-2a1.76,1.76,0,0,0-1.65,1.27,1.79,1.79,0,0,0-.08.58v4.11h-1.23v-5Z" transform="translate(-1196.47 284.45)"/><path class="b" d="M1259.24-264.62v8.25c0,0.61,0,1.3.06,1.76h-1.11l-0.06-1.19h0a2.51,2.51,0,0,1-2.31,1.34c-1.64,0-2.9-1.4-2.9-3.47,0-2.27,1.39-3.67,3-3.67a2.27,2.27,0,0,1,2,1h0v-4.08h1.23Zm-1.23,6a2.2,2.2,0,0,0-.06-0.52,1.82,1.82,0,0,0-1.78-1.44c-1.28,0-2,1.13-2,2.64s0.67,2.53,2,2.53a1.86,1.86,0,0,0,1.81-1.48,2.17,2.17,0,0,0,.06-0.54v-1.19Z" transform="translate(-1196.47 284.45)"/><path class="b" d="M1267-258.07a3.33,3.33,0,0,1-3.38,3.63,3.24,3.24,0,0,1-3.25-3.51,3.33,3.33,0,0,1,3.37-3.63A3.23,3.23,0,0,1,1267-258.07Zm-5.38.07c0,1.5.86,2.62,2.06,2.62s2.06-1.11,2.06-2.65c0-1.16-.57-2.62-2-2.62S1261.62-259.3,1261.62-258Z" transform="translate(-1196.47 284.45)"/><path class="b" d="M1268.59-261.43l0.9,3.47c0.2,0.76.38,1.47,0.5,2.17h0c0.15-.69.38-1.42,0.6-2.16l1.11-3.48h1l1.05,3.41c0.25,0.82.45,1.54,0.6,2.23h0A20.64,20.64,0,0,1,1275-258l1-3.43h1.22L1275-254.6h-1.12l-1-3.26a22.87,22.87,0,0,1-.6-2.24h0a20.3,20.3,0,0,1-.62,2.26l-1.09,3.25h-1.12l-2-6.83h1.26Z" transform="translate(-1196.47 284.45)"/><path class="b" d="M1277.87-255.87a3.22,3.22,0,0,0,1.63.49,1.1,1.1,0,0,0,1.32-1c0-.59-0.35-0.92-1.26-1.26-1.22-.44-1.79-1.11-1.79-1.93a2.1,2.1,0,0,1,2.34-2,3.37,3.37,0,0,1,1.67.42l-0.31.9a2.63,2.63,0,0,0-1.39-.4,1,1,0,0,0-1.14.93c0,0.56.41,0.82,1.29,1.16,1.18,0.45,1.78,1,1.78,2.06,0,1.2-.93,2-2.54,2a3.85,3.85,0,0,1-1.91-.47Z" transform="translate(-1196.47 284.45)"/><path class="b" d="M1287.73-262.62h0l-1.58.86-0.24-.95,2-1.07h1.05v9.17h-1.19v-8Z" transform="translate(-1196.47 284.45)"/><path class="b" d="M1297.21-259.29c0,3.12-1.15,4.84-3.17,4.84-1.78,0-3-1.68-3-4.71s1.32-4.77,3.17-4.77S1297.21-262.21,1297.21-259.29Zm-4.95.14c0,2.38.73,3.74,1.85,3.74s1.86-1.48,1.86-3.82-0.57-3.74-1.85-3.74C1293-263,1292.26-261.64,1292.26-259.15Z" transform="translate(-1196.47 284.45)"/></svg>